<?xml version="1.0" standalone="no"?><!DOCTYPE svg PUBLIC "-//W3C//DTD SVG 1.1//EN" "http://www.w3.org/Graphics/SVG/1.1/DTD/svg11.dtd"><svg t="1742482106178" class="icon" viewBox="0 0 1024 1024" version="1.1" xmlns="http://www.w3.org/2000/svg" p-id="8058" xmlns:xlink="http://www.w3.org/1999/xlink" width="200" height="200"><path d="M462.90411 368.219178c-10.520548-14.027397-35.068493-35.068493-52.60274-45.589041s-24.547945-38.575342-24.547945-45.589041c0-7.013699 3.506849-35.068493 3.506849-49.095891S378.739726 185.863014 378.739726 175.342466c-3.506849-7.013699-7.013699-31.561644-7.013699-49.095891 0 0 10.520548 3.506849 10.520548-10.520548V21.041096S385.753425 14.027397 371.726027 10.520548C357.69863 7.013699 336.657534 3.506849 319.123288 3.506849S277.041096 7.013699 266.520548 10.520548c-14.027397 3.506849-14.027397 7.013699-14.027397 7.013699v94.684931c0 14.027397 14.027397 14.027397 14.027397 14.027397 0 17.534247-3.506849 42.082192-7.013699 49.095891-3.506849 10.520548-10.520548 38.575342-10.520548 52.602739s3.506849 42.082192 3.50685 49.095891c0 7.013699-3.506849 35.068493-24.547946 45.589041s-42.082192 31.561644-52.602739 45.589041-7.013699 45.589041-7.013699 45.589041v385.753425s0 129.753425 3.506849 161.315068c0 31.561644 21.041096 59.616438 21.041096 59.616439h256s21.041096-28.054795 21.041096-59.616439c0-31.561644 3.506849-161.315068 3.50685-161.315068v-385.753425c-3.506849 0 0-31.561644-10.520548-45.589041z" fill="#9D8557" p-id="8059"></path><path d="M845.150685 368.219178c-10.520548-14.027397-35.068493-35.068493-52.60274-45.589041s-24.547945-38.575342-24.547945-45.589041c0-7.013699 3.506849-35.068493 3.506849-49.095891 0-14.027397-10.520548-45.589041-10.520548-52.602739-3.506849-7.013699-7.013699-31.561644-3.506849-52.60274 0 0 10.520548 3.506849 10.520548-10.520548V17.534247s3.506849-7.013699-10.520548-10.520548c-14.027397-3.506849-35.068493-3.506849-52.60274-3.50685s-38.575342 3.506849-52.602739 3.50685c-14.027397 3.506849-10.520548 10.520548-10.520548 10.520548v94.684931c0 14.027397 10.520548 10.520548 10.520548 10.520548 0 21.041096-3.506849 42.082192-3.50685 52.60274-3.506849 7.013699-10.520548 38.575342-10.520548 52.602739 0 14.027397 3.506849 42.082192 3.50685 49.095891 0 7.013699-3.506849 35.068493-24.547946 45.589041s-42.082192 31.561644-52.602739 45.589041-7.013699 45.589041-7.013699 45.589041v385.753425s0 129.753425 3.506849 161.315068c0 31.561644 21.041096 59.616438 21.041096 59.616439h256s21.041096-28.054795 21.041096-59.616439c0-31.561644 3.506849-161.315068 3.50685-161.315068v-385.753425c-10.520548 0-7.013699-31.561644-17.534247-45.589041z" fill="#FFFFFF" p-id="8060"></path></svg>